<?xml version="1.0" encoding="UTF-8" ?><!DOCTYPE svg PUBLIC "-//W3C//DTD SVG 1.1 Basic//EN" "http://www.w3.org/Graphics/SVG/1.1/DTD/svg11-basic.dtd">
<svg xmlns="http://www.w3.org/2000/svg" xmlns:xlink="http://www.w3.org/1999/xlink" width="120" height="42" viewBox="0 0 120 42" baseProfile="basic" version="1.1">
<g id="surface1">
<path style=" stroke:none;fill-rule:nonzero;fill:rgb(66.666667%,69.803922%,67.058824%);fill-opacity:1;" d="M 3.40625 0.4375 L 116.761719 0.640625 C 118.347656 0.640625 119.761719 0.40625 119.761719 3.800781 L 119.621094 41.128906 L 0.546875 41.128906 L 0.546875 3.664063 C 0.546875 1.988281 0.710938 0.4375 3.40625 0.4375 Z "/>
<path style=" stroke:none;fill-rule:nonzero;fill:rgb(100%,100%,100%);fill-opacity:1;" d="M 34.523438 19.539063 C 34.527344 27.066406 28.425781 33.175781 20.894531 33.179688 C 13.367188 33.183594 7.257813 27.082031 7.253906 19.554688 C 7.253906 19.546875 7.253906 19.542969 7.253906 19.539063 C 7.25 12.007813 13.347656 5.902344 20.878906 5.894531 C 28.410156 5.890625 34.519531 11.992188 34.523438 19.523438 C 34.523438 19.527344 34.523438 19.53125 34.523438 19.539063 Z "/>
<path style=" stroke:none;fill-rule:nonzero;fill:rgb(0%,0%,0%);fill-opacity:1;" d="M 31.972656 8.433594 C 34.996094 11.457031 36.507813 15.160156 36.507813 19.539063 C 36.507813 23.917969 35.019531 27.582031 32.050781 30.527344 C 28.894531 33.628906 25.167969 35.179688 20.867188 35.179688 C 16.617188 35.179688 12.957031 33.640625 9.882813 30.566406 C 6.804688 27.488281 5.265625 23.8125 5.265625 19.539063 C 5.265625 15.261719 6.804688 11.5625 9.882813 8.433594 C 12.878906 5.410156 16.539063 3.898438 20.867188 3.898438 C 25.246094 3.898438 28.949219 5.410156 31.972656 8.433594 Z M 11.917969 10.464844 C 9.359375 13.046875 8.082031 16.074219 8.082031 19.542969 C 8.082031 23.011719 9.347656 26.007813 11.878906 28.539063 C 14.40625 31.066406 17.417969 32.332031 20.914063 32.332031 C 24.410156 32.332031 27.445313 31.054688 30.027344 28.5 C 32.480469 26.125 33.707031 23.140625 33.707031 19.542969 C 33.707031 15.96875 32.460938 12.9375 29.96875 10.449219 C 27.480469 7.957031 24.460938 6.710938 20.914063 6.710938 C 17.367188 6.710938 14.367188 7.964844 11.917969 10.464844 Z M 18.644531 18.015625 C 18.253906 17.164063 17.667969 16.738281 16.886719 16.738281 C 15.511719 16.738281 14.820313 17.667969 14.820313 19.523438 C 14.820313 21.378906 15.511719 22.304688 16.886719 22.304688 C 17.796875 22.304688 18.449219 21.855469 18.839844 20.949219 L 20.75 21.964844 C 19.839844 23.585938 18.472656 24.394531 16.652344 24.394531 C 15.246094 24.394531 14.121094 23.960938 13.273438 23.101563 C 12.425781 22.238281 12.003906 21.050781 12.003906 19.539063 C 12.003906 18.050781 12.441406 16.867188 13.3125 15.996094 C 14.183594 15.121094 15.269531 14.683594 16.574219 14.683594 C 18.5 14.683594 19.878906 15.441406 20.710938 16.957031 Z M 27.632813 18.015625 C 27.242188 17.164063 26.667969 16.738281 25.914063 16.738281 C 24.507813 16.738281 23.804688 17.667969 23.804688 19.523438 C 23.804688 21.378906 24.507813 22.304688 25.914063 22.304688 C 26.824219 22.304688 27.464844 21.855469 27.828125 20.949219 L 29.78125 21.964844 C 28.871094 23.585938 27.507813 24.394531 25.691406 24.394531 C 24.285156 24.394531 23.164063 23.960938 22.316406 23.101563 C 21.476563 22.238281 21.050781 21.050781 21.050781 19.539063 C 21.050781 18.050781 21.480469 16.867188 22.339844 15.996094 C 23.195313 15.121094 24.285156 14.683594 25.613281 14.683594 C 27.535156 14.683594 28.910156 15.441406 29.742188 16.957031 Z "/>
<path style=" stroke:none;fill-rule:nonzero;fill:rgb(0%,0%,0%);fill-opacity:1;" d="M 117.753906 0 L 2.246094 0 C 1.007813 0 0 1.007813 0 2.246094 L 0 41.492188 C 0 41.773438 0.226563 42 0.507813 42 L 119.492188 42 C 119.773438 42 120 41.773438 120 41.492188 L 120 2.246094 C 120 1.007813 118.992188 0 117.753906 0 Z M 2.246094 1.015625 L 117.753906 1.015625 C 118.433594 1.015625 118.984375 1.566406 118.984375 2.246094 C 118.984375 2.246094 118.984375 18.03125 118.984375 29.453125 L 36.429688 29.453125 C 33.402344 34.925781 27.570313 38.640625 20.882813 38.640625 C 14.1875 38.640625 8.359375 34.929688 5.335938 29.453125 L 1.015625 29.453125 C 1.015625 18.03125 1.015625 2.246094 1.015625 2.246094 C 1.015625 1.566406 1.566406 1.015625 2.246094 1.015625 Z "/>
<path style=" stroke:none;fill-rule:nonzero;fill:rgb(100%,100%,100%);fill-opacity:1;" d="M 59.996094 32.746094 C 60.3125 32.746094 60.601563 32.773438 60.859375 32.832031 C 61.121094 32.886719 61.34375 32.976563 61.53125 33.105469 C 61.714844 33.230469 61.859375 33.398438 61.960938 33.609375 C 62.0625 33.820313 62.113281 34.078125 62.113281 34.386719 C 62.113281 34.722656 62.039063 35 61.886719 35.222656 C 61.734375 35.445313 61.511719 35.625 61.214844 35.769531 C 61.625 35.886719 61.929688 36.09375 62.128906 36.386719 C 62.332031 36.679688 62.433594 37.035156 62.433594 37.449219 C 62.433594 37.78125 62.367188 38.070313 62.238281 38.316406 C 62.109375 38.558594 61.933594 38.761719 61.714844 38.914063 C 61.492188 39.070313 61.242188 39.183594 60.960938 39.257813 C 60.679688 39.332031 60.386719 39.371094 60.089844 39.371094 L 56.875 39.371094 L 56.875 32.746094 Z M 59.8125 35.425781 C 60.070313 35.425781 60.285156 35.363281 60.453125 35.238281 C 60.617188 35.117188 60.703125 34.917969 60.703125 34.640625 C 60.703125 34.484375 60.675781 34.359375 60.617188 34.261719 C 60.5625 34.160156 60.488281 34.085938 60.394531 34.027344 C 60.304688 33.972656 60.195313 33.933594 60.074219 33.914063 C 59.953125 33.890625 59.828125 33.878906 59.699219 33.878906 L 58.335938 33.878906 L 58.335938 35.425781 Z M 59.894531 38.234375 C 60.039063 38.234375 60.175781 38.222656 60.304688 38.195313 C 60.433594 38.164063 60.550781 38.121094 60.648438 38.054688 C 60.746094 37.992188 60.828125 37.902344 60.886719 37.789063 C 60.945313 37.679688 60.972656 37.539063 60.972656 37.363281 C 60.972656 37.023438 60.878906 36.78125 60.6875 36.636719 C 60.492188 36.492188 60.238281 36.417969 59.921875 36.417969 L 58.335938 36.417969 L 58.335938 38.234375 Z "/>
<path style=" stroke:none;fill-rule:nonzero;fill:rgb(100%,100%,100%);fill-opacity:1;" d="M 62.691406 32.746094 L 64.324219 32.746094 L 65.875 35.363281 L 67.414063 32.746094 L 69.039063 32.746094 L 66.582031 36.828125 L 66.582031 39.371094 L 65.121094 39.371094 L 65.121094 36.789063 Z "/>
<path style=" stroke:none;fill-rule:nonzero;fill:rgb(100%,100%,100%);fill-opacity:1;" d="M 86.433594 32.746094 L 89.199219 37.191406 L 89.214844 37.191406 L 89.214844 32.746094 L 90.582031 32.746094 L 90.582031 39.371094 L 89.125 39.371094 L 86.371094 34.933594 L 86.351563 34.933594 L 86.351563 39.371094 L 84.984375 39.371094 L 84.984375 32.746094 Z "/>
<path style=" stroke:none;fill-rule:nonzero;fill:rgb(100%,100%,100%);fill-opacity:1;" d="M 96.113281 34.511719 C 96.023438 34.371094 95.917969 34.25 95.785156 34.144531 C 95.65625 34.039063 95.507813 33.957031 95.34375 33.898438 C 95.183594 33.839844 95.011719 33.8125 94.832031 33.8125 C 94.503906 33.8125 94.226563 33.875 93.996094 34 C 93.765625 34.128906 93.582031 34.296875 93.441406 34.511719 C 93.296875 34.722656 93.191406 34.964844 93.128906 35.238281 C 93.0625 35.511719 93.03125 35.792969 93.03125 36.082031 C 93.03125 36.359375 93.0625 36.628906 93.128906 36.894531 C 93.191406 37.15625 93.296875 37.390625 93.441406 37.601563 C 93.582031 37.8125 93.765625 37.980469 93.996094 38.109375 C 94.226563 38.234375 94.503906 38.296875 94.832031 38.296875 C 95.277344 38.296875 95.625 38.160156 95.875 37.890625 C 96.125 37.617188 96.277344 37.257813 96.332031 36.8125 L 97.742188 36.8125 C 97.707031 37.226563 97.609375 37.601563 97.457031 37.9375 C 97.300781 38.269531 97.097656 38.554688 96.84375 38.789063 C 96.589844 39.027344 96.292969 39.207031 95.953125 39.332031 C 95.613281 39.453125 95.238281 39.515625 94.832031 39.515625 C 94.324219 39.515625 93.867188 39.429688 93.460938 39.25 C 93.058594 39.078125 92.714844 38.832031 92.4375 38.523438 C 92.15625 38.214844 91.941406 37.851563 91.792969 37.433594 C 91.644531 37.015625 91.570313 36.566406 91.570313 36.082031 C 91.570313 35.585938 91.644531 35.128906 91.792969 34.703125 C 91.941406 34.28125 92.15625 33.910156 92.4375 33.59375 C 92.714844 33.28125 93.058594 33.03125 93.460938 32.851563 C 93.867188 32.671875 94.324219 32.585938 94.832031 32.585938 C 95.195313 32.585938 95.539063 32.636719 95.867188 32.742188 C 96.191406 32.847656 96.480469 33 96.738281 33.203125 C 96.996094 33.402344 97.207031 33.652344 97.371094 33.949219 C 97.539063 34.246094 97.644531 34.585938 97.6875 34.96875 L 96.277344 34.96875 C 96.253906 34.804688 96.199219 34.648438 96.113281 34.511719 Z "/>
<path style=" stroke:none;fill-rule:nonzero;fill:rgb(100%,100%,100%);fill-opacity:1;" d="M 74.097656 15.21875 C 74.097656 21.148438 69.289063 25.957031 63.359375 25.957031 C 57.429688 25.957031 52.621094 21.148438 52.621094 15.21875 C 52.621094 9.285156 57.429688 4.480469 63.359375 4.480469 C 69.289063 4.480469 74.097656 9.285156 74.097656 15.21875 Z "/>
<path style=" stroke:none;fill-rule:nonzero;fill:rgb(0%,0%,0%);fill-opacity:1;" d="M 66.46875 12.109375 C 66.46875 11.695313 66.132813 11.359375 65.71875 11.359375 L 60.976563 11.359375 C 60.5625 11.359375 60.226563 11.695313 60.226563 12.109375 L 60.226563 16.851563 L 61.550781 16.851563 L 61.550781 22.46875 L 65.144531 22.46875 L 65.144531 16.851563 L 66.46875 16.851563 Z "/>
<path style=" stroke:none;fill-rule:nonzero;fill:rgb(0%,0%,0%);fill-opacity:1;" d="M 64.96875 9.113281 C 64.96875 10.011719 64.242188 10.738281 63.347656 10.738281 C 62.453125 10.738281 61.726563 10.011719 61.726563 9.113281 C 61.726563 8.21875 62.453125 7.492188 63.347656 7.492188 C 64.242188 7.492188 64.96875 8.21875 64.96875 9.113281 Z "/>
<path style=" stroke:none;fill-rule:evenodd;fill:rgb(0%,0%,0%);fill-opacity:1;" d="M 63.332031 3.386719 C 60.121094 3.386719 57.402344 4.507813 55.175781 6.75 C 52.890625 9.066406 51.75 11.8125 51.75 14.980469 C 51.75 18.148438 52.890625 20.875 55.175781 23.15625 C 57.460938 25.433594 60.179688 26.574219 63.332031 26.574219 C 66.523438 26.574219 69.292969 25.425781 71.632813 23.125 C 73.839844 20.941406 74.941406 18.226563 74.941406 14.980469 C 74.941406 11.734375 73.820313 8.988281 71.578125 6.75 C 69.332031 4.507813 66.582031 3.386719 63.332031 3.386719 Z M 63.359375 5.472656 C 65.992188 5.472656 68.226563 6.398438 70.066406 8.253906 C 71.925781 10.089844 72.855469 12.332031 72.855469 14.980469 C 72.855469 17.648438 71.945313 19.859375 70.125 21.617188 C 68.207031 23.511719 65.953125 24.460938 63.359375 24.460938 C 60.769531 24.460938 58.53125 23.523438 56.65625 21.648438 C 54.777344 19.773438 53.839844 17.550781 53.839844 14.980469 C 53.839844 12.410156 54.789063 10.167969 56.683594 8.253906 C 58.503906 6.398438 60.730469 5.472656 63.359375 5.472656 Z "/>
<path style=" stroke:none;fill-rule:nonzero;fill:rgb(100%,100%,100%);fill-opacity:1;" d="M 101.71875 14.980469 C 101.722656 20.480469 97.265625 24.941406 91.765625 24.945313 C 86.265625 24.949219 81.800781 20.496094 81.796875 14.996094 C 81.796875 14.988281 81.796875 14.984375 81.796875 14.980469 C 81.792969 9.480469 86.25 5.019531 91.75 5.015625 C 97.25 5.011719 101.714844 9.464844 101.71875 14.964844 C 101.71875 14.96875 101.71875 14.976563 101.71875 14.980469 Z "/>
<path style=" stroke:none;fill-rule:nonzero;fill:rgb(0%,0%,0%);fill-opacity:1;" d="M 99.988281 6.746094 C 97.742188 4.503906 94.992188 3.382813 91.742188 3.382813 C 88.53125 3.382813 85.8125 4.503906 83.585938 6.746094 C 81.300781 9.066406 80.160156 11.808594 80.160156 14.980469 C 80.160156 18.148438 81.300781 20.875 83.585938 23.152344 C 85.871094 25.433594 88.589844 26.574219 91.742188 26.574219 C 94.9375 26.574219 97.703125 25.425781 100.042969 23.125 C 102.25 20.941406 103.355469 18.226563 103.355469 14.980469 C 103.355469 11.730469 102.230469 8.988281 99.988281 6.746094 Z M 98.535156 21.617188 C 96.617188 23.511719 94.363281 24.457031 91.773438 24.457031 C 89.179688 24.457031 86.945313 23.519531 85.066406 21.644531 C 83.1875 19.769531 82.25 17.550781 82.25 14.980469 C 82.25 13.890625 82.421875 12.863281 82.761719 11.894531 L 85.835938 13.253906 L 85.613281 13.253906 L 85.613281 14.632813 L 86.699219 14.632813 C 86.699219 14.828125 86.679688 15.023438 86.679688 15.214844 L 86.679688 15.546875 L 85.613281 15.546875 L 85.613281 16.925781 L 86.875 16.925781 C 87.050781 17.953125 87.4375 18.789063 87.960938 19.449219 C 89.050781 20.886719 90.796875 21.660156 92.699219 21.660156 C 93.941406 21.660156 95.066406 21.292969 95.726563 20.921875 L 95.261719 18.769531 C 94.855469 18.984375 93.941406 19.273438 93.050781 19.273438 C 92.078125 19.273438 91.164063 18.984375 90.542969 18.285156 C 90.253906 17.953125 90.039063 17.507813 89.902344 16.925781 L 94.125 16.925781 L 100.121094 19.578125 C 99.707031 20.316406 99.179688 20.996094 98.535156 21.617188 Z M 90.992188 15.546875 L 90.96875 15.527344 L 91.011719 15.546875 Z M 94.601563 14.632813 L 94.777344 14.632813 L 94.777344 13.253906 L 91.488281 13.253906 L 90.15625 12.664063 C 90.269531 12.40625 90.40625 12.175781 90.5625 11.992188 C 91.164063 11.253906 92.019531 10.945313 92.953125 10.945313 C 93.804688 10.945313 94.601563 11.195313 95.105469 11.410156 L 95.648438 9.199219 C 94.949219 8.886719 93.921875 8.617188 92.738281 8.617188 C 90.914063 8.617188 89.359375 9.351563 88.253906 10.59375 C 88.007813 10.878906 87.796875 11.199219 87.601563 11.535156 L 83.789063 9.847656 C 84.15625 9.292969 84.59375 8.761719 85.09375 8.253906 C 86.914063 6.398438 89.140625 5.46875 91.773438 5.46875 C 94.402344 5.46875 96.640625 6.398438 98.476563 8.253906 C 100.335938 10.089844 101.261719 12.332031 101.261719 14.980469 C 101.261719 15.851563 101.164063 16.675781 100.96875 17.449219 Z "/>
</g>
</svg>
