<?xml version="1.0" encoding="iso-8859-1"?>
<!-- Generator: Adobe Illustrator 16.0.0, SVG Export Plug-In . SVG Version: 6.00 Build 0)  -->
<!DOCTYPE svg PUBLIC "-//W3C//DTD SVG 1.1//EN" "http://www.w3.org/Graphics/SVG/1.1/DTD/svg11.dtd">
<svg xmlns="http://www.w3.org/2000/svg" xmlns:xlink="http://www.w3.org/1999/xlink" version="1.1" id="Capa_1" x="0px" y="0px" width="512px" height="512px" viewBox="0 0 463.973 463.973" style="enable-background:new 0 0 463.973 463.973;" xml:space="preserve">
<g>
	<g id="Layer_3_8_">
		<g>
			<polygon points="270.256,159.377 173.366,170.017 109.677,96.235 89.853,191.668 0,229.442 84.638,277.785 92.797,374.913      164.927,309.358 259.824,331.612 219.767,242.753    " fill="#006DF0"/>
			<path d="M291.568,89.06c-41.39,0-88.265,8.383-141.547,29.836l15.632,18.107c44.027-16.855,86.257-25.402,125.916-25.402     c42.23,0,78.203,9.51,108.482,22.048c-60.896,21.497-102.367,57.588-128.248,87.525c-11.249,13.01-20.371,25.733-27.631,37.162     l10.93,25.646c24.375-43.578,85.447-124.716,208.871-142.949C420.068,114.896,364.273,89.06,291.568,89.06z" fill="#006DF0"/>
		</g>
	</g>
</g>
<g>
</g>
<g>
</g>
<g>
</g>
<g>
</g>
<g>
</g>
<g>
</g>
<g>
</g>
<g>
</g>
<g>
</g>
<g>
</g>
<g>
</g>
<g>
</g>
<g>
</g>
<g>
</g>
<g>
</g>
</svg>
